<svg xmlns="http://www.w3.org/2000/svg" width="800" height="500" viewBox="0 0 800 500" role="img" aria-label="Node Firebase Mobile Backend preview">
  <defs>
    <linearGradient id="bg4" x1="0" y1="0" x2="800" y2="500" gradientUnits="userSpaceOnUse">
      <stop offset="0%" stop-color="#FBF7F0"/>
      <stop offset="100%" stop-color="#F4ECDE"/>
    </linearGradient>
  </defs>
  <rect width="800" height="500" fill="url(#bg4)"/>
  <rect x="24" y="24" width="752" height="452" rx="16" fill="#fff" stroke="#E8DFD0"/>
  <rect x="24" y="24" width="752" height="44" rx="16" fill="#F2742C"/>
  <rect x="24" y="52" width="752" height="16" fill="#F2742C"/>
  <text x="44" y="50" fill="#fff" font-family="system-ui,sans-serif" font-size="13" font-weight="600">Node Firebase Mobile Backend</text>
  <text x="44" y="84" fill="#5B6B73" font-family="system-ui,sans-serif" font-size="11">Cloud Functions · Firestore rules · emulator-first tests</text>
  <rect x="44" y="104" width="280" height="340" rx="12" fill="#F8F3EA" stroke="#E8DFD0"/>
  <text x="60" y="128" fill="#0B2540" font-family="monospace" font-size="10" font-weight="600">MOBILE CLIENT</text>
  <rect x="100" y="148" width="168" height="280" rx="20" fill="#0B2540"/>
  <rect x="112" y="168" width="144" height="24" rx="6" fill="rgba(255,255,255,0.1)"/>
  <text x="124" y="184" fill="#fff" font-family="system-ui,sans-serif" font-size="10">Patient check-in</text>
  <rect x="112" y="204" width="144" height="48" rx="8" fill="rgba(14,158,142,0.3)"/>
  <text x="124" y="224" fill="#fff" font-family="system-ui,sans-serif" font-size="9">Appointment synced</text>
  <text x="124" y="240" fill="rgba(255,255,255,0.7)" font-family="monospace" font-size="8">Firestore write OK</text>
  <rect x="112" y="264" width="144" height="48" rx="8" fill="rgba(31,168,91,0.3)"/>
  <text x="124" y="284" fill="#fff" font-family="system-ui,sans-serif" font-size="9">Push notification</text>
  <text x="124" y="300" fill="rgba(255,255,255,0.7)" font-family="monospace" font-size="8">Cloud Function</text>
  <rect x="112" y="324" width="144" height="48" rx="8" fill="rgba(242,116,44,0.3)"/>
  <text x="124" y="344" fill="#fff" font-family="system-ui,sans-serif" font-size="9">Auth token refresh</text>
  <text x="124" y="360" fill="rgba(255,255,255,0.7)" font-family="monospace" font-size="8">Rules validated</text>
  <rect x="340" y="104" width="416" height="160" rx="12" fill="#fff" stroke="#E8DFD0"/>
  <text x="356" y="128" fill="#0B2540" font-family="monospace" font-size="10" font-weight="600">FIRESTORE RULES</text>
  <rect x="356" y="140" width="384" height="108" rx="8" fill="#0B2540"/>
  <text x="368" y="164" fill="#1FA85B" font-family="monospace" font-size="9">match /patients/{id} {</text>
  <text x="384" y="182" fill="#fff" font-family="monospace" font-size="9">allow read: if request.auth != null;</text>
  <text x="384" y="200" fill="#fff" font-family="monospace" font-size="9">allow write: if isClinician();</text>
  <text x="368" y="218" fill="#1FA85B" font-family="monospace" font-size="9">}</text>
  <rect x="340" y="280" width="416" height="164" rx="12" fill="#fff" stroke="#E8DFD0"/>
  <text x="356" y="304" fill="#0B2540" font-family="monospace" font-size="10" font-weight="600">EMULATOR SUITE</text>
  <rect x="356" y="316" width="120" height="28" rx="14" fill="rgba(31,168,91,0.15)"/>
  <text x="368" y="334" fill="#1FA85B" font-family="monospace" font-size="9">Auth emulator</text>
  <rect x="488" y="316" width="120" height="28" rx="14" fill="rgba(14,158,142,0.15)"/>
  <text x="500" y="334" fill="#0E9E8E" font-family="monospace" font-size="9">Firestore</text>
  <rect x="620" y="316" width="120" height="28" rx="14" fill="rgba(242,116,44,0.15)"/>
  <text x="632" y="334" fill="#F2742C" font-family="monospace" font-size="9">Functions</text>
  <text x="356" y="372" fill="#5B6B73" font-family="monospace" font-size="10">npm run demo · 3 integration tests passing</text>
  <rect x="356" y="388" width="200" height="40" rx="8" fill="#F8F3EA"/>
  <text x="368" y="412" fill="#0E2A3B" font-family="monospace" font-size="9">onAppointmentCreate() → notify patient</text>
</svg>
