<svg xmlns="http://www.w3.org/2000/svg" width="800" height="500" viewBox="0 0 800 500" role="img" aria-label="Healthcare Interoperability Lab preview">
  <defs>
    <linearGradient id="bg-interop" x1="0" y1="0" x2="800" y2="500" gradientUnits="userSpaceOnUse">
      <stop offset="0%" stop-color="#F0F7FA"/>
      <stop offset="100%" stop-color="#E8F2F6"/>
    </linearGradient>
  </defs>
  <rect width="800" height="500" fill="url(#bg-interop)"/>
  <rect x="24" y="24" width="752" height="452" rx="16" fill="#fff" stroke="#D0E4EE" stroke-width="1"/>
  <rect x="24" y="24" width="752" height="44" rx="16" fill="#1FA85B"/>
  <rect x="24" y="52" width="752" height="16" fill="#1FA85B"/>
  <text x="48" y="50" fill="#fff" font-family="system-ui,sans-serif" font-size="13" font-weight="600">Healthcare Interoperability Lab</text>
  <text x="48" y="78" fill="#4A6274" font-family="system-ui,sans-serif" font-size="11">Integration index - synthetic payloads only</text>
  <rect x="60" y="110" width="180" height="100" rx="12" fill="#F5FAFC" stroke="#1FA85B" stroke-width="2"/>
  <text x="80" y="145" fill="#1FA85B" font-family="monospace" font-size="11" font-weight="600">eCHIS</text>
  <text x="80" y="170" fill="#4A6274" font-family="system-ui,sans-serif" font-size="10">Community health</text>
  <rect x="310" y="130" width="180" height="60" rx="10" fill="#0A2540"/>
  <text x="340" y="158" fill="#fff" font-family="monospace" font-size="11">OpenHIM Mediator</text>
  <text x="340" y="176" fill="#7A94A8" font-family="monospace" font-size="9">validate + route</text>
  <rect x="560" y="110" width="180" height="100" rx="12" fill="#F5FAFC" stroke="#1A6BB5" stroke-width="2"/>
  <text x="580" y="145" fill="#1A6BB5" font-family="monospace" font-size="11" font-weight="600">DHIS2</text>
  <text x="580" y="170" fill="#4A6274" font-family="system-ui,sans-serif" font-size="10">Aggregate reports</text>
  <line x1="240" y1="160" x2="310" y2="160" stroke="#1FA85B" stroke-width="2" marker-end="url(#arrow)"/>
  <line x1="490" y1="160" x2="560" y2="160" stroke="#1A6BB5" stroke-width="2"/>
  <rect x="60" y="250" width="320" height="90" rx="12" fill="#fff" stroke="#D0E4EE"/>
  <text x="80" y="280" fill="#0A2540" font-family="system-ui,sans-serif" font-size="12" font-weight="600">LIS Analyzer Integration</text>
  <text x="80" y="305" fill="#4A6274" font-family="system-ui,sans-serif" font-size="10">CSV/JSON ingestion, code mapping, validation</text>
  <rect x="80" y="316" width="120" height="18" rx="6" fill="rgba(14,158,142,0.15)"/>
  <text x="92" y="329" fill="#0E9E8E" font-family="monospace" font-size="8">Python + CI tests</text>
  <rect x="420" y="250" width="320" height="90" rx="12" fill="#fff" stroke="#D0E4EE"/>
  <text x="440" y="280" fill="#0A2540" font-family="system-ui,sans-serif" font-size="12" font-weight="600">Healthcare AI Backends</text>
  <text x="440" y="305" fill="#4A6274" font-family="system-ui,sans-serif" font-size="10">FastAPI workflows with audit + review</text>
  <rect x="440" y="316" width="140" height="18" rx="6" fill="rgba(26,107,181,0.15)"/>
  <text x="452" y="329" fill="#1A6BB5" font-family="monospace" font-size="8">FHIR/HL7 concepts</text>
  <rect x="60" y="370" width="680" height="56" rx="10" fill="#1FA85B"/>
  <text x="80" y="404" fill="#fff" font-family="monospace" font-size="11">healthcare-integration-portfolio - index of all interoperability labs</text>
</svg>
