<svg xmlns="http://www.w3.org/2000/svg" width="800" height="500" viewBox="0 0 800 500" role="img" aria-label="eRIS Modernization Demo preview">
  <defs>
    <linearGradient id="bg-eris" x1="0" y1="0" x2="800" y2="500" gradientUnits="userSpaceOnUse">
      <stop offset="0%" stop-color="#F0F7FA"/>
      <stop offset="100%" stop-color="#E8F2F6"/>
    </linearGradient>
  </defs>
  <rect width="800" height="500" fill="url(#bg-eris)"/>
  <rect x="24" y="24" width="752" height="452" rx="16" fill="#fff" stroke="#D0E4EE" stroke-width="1"/>
  <rect x="24" y="24" width="752" height="44" rx="16" fill="#1A6BB5"/>
  <rect x="24" y="52" width="752" height="16" fill="#1A6BB5"/>
  <circle cx="48" cy="46" r="6" fill="#fff" opacity="0.9"/>
  <circle cx="68" cy="46" r="6" fill="#fff" opacity="0.5"/>
  <circle cx="88" cy="46" r="6" fill="#1FA85B"/>
  <text x="110" y="50" fill="#fff" font-family="system-ui,sans-serif" font-size="13" font-weight="600">eRIS Modernization Demo</text>
  <text x="110" y="78" fill="#4A6274" font-family="system-ui,sans-serif" font-size="11">Regulatory workflow - synthetic applications only</text>
  <rect x="44" y="96" width="108" height="72" rx="10" fill="#fff" stroke="#D0E4EE"/>
  <text x="56" y="118" fill="#4A6274" font-family="monospace" font-size="10">Submitted</text>
  <text x="56" y="152" fill="#1A6BB5" font-family="Georgia,serif" font-size="28" font-weight="600">2</text>
  <rect x="162" y="96" width="108" height="72" rx="10" fill="#fff" stroke="#D0E4EE"/>
  <text x="174" y="118" fill="#4A6274" font-family="monospace" font-size="10">In review</text>
  <text x="174" y="152" fill="#F2742C" font-family="Georgia,serif" font-size="28" font-weight="600">3</text>
  <rect x="280" y="96" width="108" height="72" rx="10" fill="#fff" stroke="#D0E4EE"/>
  <text x="292" y="118" fill="#4A6274" font-family="monospace" font-size="10">Approved</text>
  <text x="292" y="152" fill="#1FA85B" font-family="Georgia,serif" font-size="28" font-weight="600">1</text>
  <rect x="398" y="96" width="108" height="72" rx="10" fill="#fff" stroke="#D0E4EE"/>
  <text x="410" y="118" fill="#4A6274" font-family="monospace" font-size="10">Audit events</text>
  <text x="410" y="152" fill="#0A2540" font-family="Georgia,serif" font-size="28" font-weight="600">42</text>
  <rect x="44" y="188" width="712" height="36" rx="8" fill="#F5FAFC"/>
  <text x="56" y="210" fill="#0A2540" font-family="monospace" font-size="10" font-weight="600">APP ID</text>
  <text x="160" y="210" fill="#0A2540" font-family="monospace" font-size="10" font-weight="600">PRODUCT</text>
  <text x="360" y="210" fill="#0A2540" font-family="monospace" font-size="10" font-weight="600">STATUS</text>
  <text x="540" y="210" fill="#0A2540" font-family="monospace" font-size="10" font-weight="600">REVIEWER</text>
  <rect x="44" y="232" width="712" height="44" rx="8" fill="#fff" stroke="#D0E4EE"/>
  <text x="56" y="258" fill="#0A2540" font-family="system-ui,sans-serif" font-size="12">APP-2024-001</text>
  <text x="160" y="258" fill="#4A6274" font-family="system-ui,sans-serif" font-size="11">Medical device import</text>
  <rect x="360" y="244" width="100" height="20" rx="10" fill="rgba(242,116,44,0.15)"/>
  <text x="372" y="258" fill="#F2742C" font-family="monospace" font-size="9">IN REVIEW</text>
  <text x="540" y="258" fill="#4A6274" font-family="system-ui,sans-serif" font-size="11">reviewer@demo</text>
  <rect x="44" y="284" width="712" height="44" rx="8" fill="#fff" stroke="#D0E4EE"/>
  <text x="56" y="310" fill="#0A2540" font-family="system-ui,sans-serif" font-size="12">APP-2024-003</text>
  <text x="160" y="310" fill="#4A6274" font-family="system-ui,sans-serif" font-size="11">Pharma registration</text>
  <rect x="360" y="296" width="88" height="20" rx="10" fill="rgba(31,168,91,0.15)"/>
  <text x="378" y="310" fill="#1FA85B" font-family="monospace" font-size="9">APPROVED</text>
  <text x="540" y="310" fill="#4A6274" font-family="system-ui,sans-serif" font-size="11">admin@demo</text>
  <rect x="44" y="356" width="220" height="56" rx="10" fill="#1A6BB5"/>
  <text x="60" y="390" fill="#fff" font-family="monospace" font-size="11">JWT + RBAC workflow</text>
  <rect x="280" y="356" width="200" height="56" rx="10" fill="#F5FAFC" stroke="#1A6BB5" stroke-width="1"/>
  <text x="296" y="390" fill="#1A6BB5" font-family="monospace" font-size="11">Append-only audit log</text>
  <rect x="496" y="356" width="160" height="56" rx="10" fill="#0E9E8E"/>
  <text x="512" y="390" fill="#fff" font-family="monospace" font-size="11">18 tests passing</text>
</svg>
